<?xml version="1.0" standalone="no"?><!DOCTYPE svg PUBLIC "-//W3C//DTD SVG 1.1//EN" "http://www.w3.org/Graphics/SVG/1.1/DTD/svg11.dtd"><svg t="1658796484527" class="icon" viewBox="0 0 1024 1024" version="1.1" xmlns="http://www.w3.org/2000/svg" p-id="3395" xmlns:xlink="http://www.w3.org/1999/xlink" width="200" height="200"><defs><style type="text/css"></style></defs><path d="M250.057143 1024c-30.857143 0-56.571429-22.171429-61.142857-52.571429L100.228571 379.771429l-0.114285-0.8c-2.742857-23.657143-0.8-44.685714 6.057143-62.742858-1.142857-10.285714-0.8-20.685714 0.914285-30.971428-6.057143-25.371429-2.628571-52.228571 10.057143-75.657143s33.257143-40.914286 57.828572-49.714286c7.2-6.742857 15.2-12.457143 23.885714-17.028571 1.028571-20 7.657143-39.542857 19.542857-56.457143 15.428571-21.828571 37.942857-36.685714 63.428571-42.514286 18.285714-13.371429 40.571429-20.914286 63.428572-20.914285 3.314286 0 6.628571 0.114286 9.942857 0.457142 5.028571 0.457143 9.942857 1.257143 14.742857 2.4 5.257143-2.171429 10.628571-3.771429 16.228572-5.028571C404.342857 7.428571 426.628571 0 449.485714 0c3.314286 0 6.742857 0.114286 10.057143 0.457143 15.771429 1.485714 30.857143 6.4 44.228572 14.285714 7.657143-2.171429 15.657143-3.428571 23.657142-3.885714C542.057143 3.771429 558.057143 0 574.628571 0c9.714286 0 19.428571 1.371429 28.8 4 15.542857 4.342857 29.6 12 41.371429 22.171429 2.171429-0.571429 4.342857-1.028571 6.514286-1.371429 6.285714-1.142857 12.685714-1.714286 18.971428-1.714286 19.885714 0 39.2 5.485714 55.885715 15.771429 25.828571 3.657143 49.6 16.685714 66.742857 36.914286C809.142857 94.857143 817.828571 118.514286 818.171429 142.857143c16.228571 7.885714 30.057143 19.771429 40.342857 34.628571 22.285714 13.6 38.857143 34.857143 46.514285 60.457143 5.6 18.742857 6.057143 38.285714 1.371429 56.685714 3.657143 5.142857 6.742857 10.628571 9.371429 16.571429 8.342857 19.085714 11.085714 41.942857 8 67.771429l-0.114286 0.8-88.685714 591.542857c-4.571429 30.514286-30.285714 52.685714-61.142858 52.685714H250.057143z" fill="#25467A" p-id="3396"></path><path d="M350.742857 71.657143c-18.628571-1.714286-36 5.485714-47.885714 18.057143-17.257143 0.914286-34.057143 9.371429-44.914286 24.685714s-13.257143 33.828571-8.342857 50.514286c-7.885714 15.428571-8.914286 34.171429-1.028571 51.2 7.771429 17.028571 22.742857 28.457143 39.542857 32.457143 9.371429 14.514286 25.142857 24.8 43.771428 26.514285s36-5.485714 47.885715-18.057143c17.257143-0.914286 34.057143-9.371429 44.914285-24.685714 10.742857-15.2 13.257143-33.828571 8.342857-50.514286 7.885714-15.428571 8.914286-34.171429 1.028572-51.2-7.771429-16.914286-22.628571-28.342857-39.542857-32.457142-9.371429-14.514286-25.142857-24.8-43.771429-26.514286z" fill="#FFF9C4" p-id="3397"></path><path d="M422.742857 234.971429c-10.742857 13.6-26.628571 21.257143-42.971428 22.057142-11.885714 12.571429-29.257143 19.771429-47.885715 18.057143s-34.4-12-43.771428-26.514285c-16.8-4-31.771429-15.542857-39.542857-32.457143-5.942857-13.028571-6.742857-27.085714-3.314286-39.885715 1.142857 24.114286 20.685714 43.657143 45.142857 43.085715 7.428571 17.828571 18.171429 30.057143 38.4 34.742857 17.828571 4.114286 39.314286-2.285714 50.628571-19.657143 13.142857 15.771429 31.2 11.657143 43.314286 0.571429z" fill="#FCE68D" p-id="3398"></path><path d="M385.257143 110.057143c8.114286 0 16.228571 2.4 23.314286 7.428571 18.057143 12.8 22.4 37.942857 9.6 56-1.028571 1.485714-2.171429 2.857143-3.428572 4.228572-2.628571-3.771429-5.828571-7.085714-9.828571-9.828572-1.142857-0.8-2.285714-1.485714-3.428572-2.171428-2.057143-16.228571-10.742857-31.542857-25.142857-41.714286-27.314286-19.428571-65.257143-12.914286-84.685714 14.514286-2.628571 3.771429-4.8 7.657143-6.514286 11.771428-7.657143 2.057143-14.742857 6.4-20.114286 12.8-7.314286-13.142857-6.971429-29.828571 2.285715-42.857143 10.057143-14.171429 27.657143-19.885714 43.428571-15.542857 0.914286-1.942857 2.057143-3.885714 3.314286-5.714285 12.8-18.057143 37.942857-22.4 56-9.6 7.542857 5.142857 12.685714 12.571429 15.2 20.685714z" fill="#FBC02D" p-id="3399"></path><path d="M774.057143 207.428571c6.285714-17.6 3.771429-36.228571-5.485714-50.857142 3.428571-17.028571-0.571429-35.314286-12.685715-49.6s-29.485714-21.371429-46.857143-20.685715c-12.914286-11.542857-30.857143-17.142857-49.257142-13.828571s-33.257143 14.857143-41.371429 30.171428c-16.457143 5.485714-30.285714 18.171429-36.685714 35.771429-6.285714 17.6-3.771429 36.228571 5.485714 50.857143-3.428571 17.028571 0.571429 35.314286 12.685714 49.6s29.485714 21.371429 46.857143 20.685714c12.914286 11.542857 30.857143 17.142857 49.257143 13.828572s33.257143-14.857143 41.371429-30.171429c16.457143-5.485714 30.285714-18.171429 36.685714-35.771429z" fill="#FFF59D" p-id="3400"></path><path d="M597.942857 236.342857c-10.514286-13.828571-13.942857-31.085714-10.628571-47.085714-9.142857-14.742857-11.771429-33.371429-5.485715-50.857143 6.285714-17.6 20.228571-30.285714 36.685715-35.771429 8.114286-15.314286 22.971429-26.857143 41.371428-30.171428 14.057143-2.514286 27.885714 0.228571 39.428572 6.857143-23.657143-5.028571-47.428571 9.028571-53.028572 32.914285-19.085714 2.742857-33.6 10.057143-43.314285 28.571429-8.457143 16.228571-7.657143 38.628571 6.4 53.942857-18.628571 8.571429-19.085714 26.971429-11.428572 41.6zM728.228571 231.314286c-1.942857 7.771429-6.4 15.085714-13.028571 20.685714-16.914286 14.285714-42.285714 12.228571-56.571429-4.8-1.142857-1.371429-2.285714-2.857143-3.2-4.342857 4.228571-1.6 8.342857-3.885714 12-6.971429 1.028571-0.914286 2.057143-1.828571 2.971429-2.857143 16.228571 2.057143 33.257143-2.514286 46.742857-13.828571 25.6-21.6 28.8-60 7.2-85.6-2.971429-3.542857-6.285714-6.628571-9.714286-9.257143-0.114286-7.885714-2.514286-15.885714-7.314285-22.742857 14.514286-3.885714 30.628571 0.685714 40.914285 12.914286 11.2 13.257143 12.342857 31.657143 4.114286 45.942857 1.6 1.371429 3.2 2.971429 4.685714 4.685714 14.285714 16.914286 12.228571 42.285714-4.8 56.685714-6.971429 5.942857-15.428571 9.028571-24 9.485715z" fill="#FBC02D" p-id="3401"></path><path d="M339.314286 329.942857c8.914286-16.457143 9.142857-35.2 2.285714-51.085714 5.942857-16.228571 4.685714-34.971429-5.028571-50.971429-9.828571-15.885714-25.942857-25.485714-43.2-27.542857-11.085714-13.371429-28-21.6-46.628572-21.028571s-35.085714 9.714286-45.371428 23.657143c-17.028571 2.971429-32.685714 13.371429-41.6 29.828571-8.914286 16.457143-9.142857 35.2-2.285715 51.085714-5.942857 16.228571-4.685714 34.971429 5.028572 50.971429 9.828571 15.885714 25.942857 25.485714 43.2 27.542857 11.085714 13.371429 28 21.6 46.628571 21.028571s35.085714-9.714286 45.371429-23.657142c17.142857-2.971429 32.685714-13.485714 41.6-29.828572z" fill="#FFF59D" p-id="3402"></path><path d="M160.914286 332c-8.342857-15.314286-9.142857-32.8-3.428572-48.114286-6.857143-15.885714-6.628571-34.742857 2.285715-51.2 8.914286-16.457143 24.457143-26.857143 41.6-29.828571 10.4-13.942857 26.742857-23.085714 45.371428-23.657143 14.285714-0.342857 27.542857 4.342857 37.942857 12.685714-22.628571-8.457143-48.228571 1.828571-57.371428 24.571429-19.314286-0.114286-34.742857 4.914286-47.085715 21.714286-10.742857 14.742857-13.257143 37.028571-1.828571 54.285714-19.657143 5.828571-22.971429 24-17.485714 39.542857z" fill="#FBC02D" p-id="3403"></path><path d="M290.4 346.628571c-3.085714 7.428571-8.571429 13.942857-15.885714 18.514286-18.857143 11.657143-43.657143 5.714286-55.314286-13.142857-0.914286-1.6-1.828571-3.2-2.514286-4.8 4.457143-0.914286 8.8-2.628571 12.914286-5.142857 1.142857-0.685714 2.285714-1.485714 3.428571-2.285714 15.771429 4.457143 33.257143 2.514286 48.228572-6.742858 28.571429-17.6 37.485714-54.971429 19.885714-83.542857-2.4-3.885714-5.142857-7.428571-8.228571-10.628571 1.142857-7.885714-0.114286-16-3.885715-23.542857 14.971429-1.6 30.171429 5.257143 38.514286 18.971428 9.142857 14.742857 7.428571 33.142857-2.742857 46.057143 1.371429 1.6 2.742857 3.428571 3.885714 5.371429 11.657143 18.857143 5.714286 43.657143-13.142857 55.314285-7.771429 4.685714-16.571429 6.514286-25.142857 5.6z" fill="#942909" p-id="3404"></path><path d="M835.314286 351.314286c12.8-13.6 17.828571-31.657143 15.314285-48.8 9.942857-14.171429 13.485714-32.685714 8.114286-50.514286-5.371429-17.942857-18.514286-31.314286-34.628571-37.714286-7.314286-15.771429-21.485714-28-39.657143-32.342857s-36.342857 0.342857-49.942857 11.2c-17.257143-1.485714-35.085714 4.571429-47.885715 18.171429s-17.828571 31.657143-15.314285 48.8c-9.942857 14.171429-13.485714 32.685714-8.114286 50.514285 5.371429 17.942857 18.514286 31.314286 34.628571 37.714286 7.314286 15.771429 21.485714 28 39.657143 32.342857s36.342857-0.342857 49.942857-11.2c17.257143 1.485714 35.085714-4.571429 47.885715-18.171428z" fill="#FFF59D" p-id="3405"></path><path d="M662.285714 307.542857c-4.114286-16.914286-0.342857-34.057143 9.028572-47.428571-2.514286-17.142857 2.514286-35.2 15.314285-48.914286 12.8-13.6 30.628571-19.771429 47.885715-18.171429 13.6-10.742857 31.771429-15.428571 49.942857-11.2 13.942857 3.314286 25.485714 11.314286 33.485714 21.942858-19.771429-14.057143-47.085714-10.628571-61.714286 9.028571-18.628571-5.028571-34.857143-4.228571-51.085714 8.914286-14.171429 11.428571-22.4 32.342857-15.657143 52-20.685714 0.685714-28.457143 17.485714-27.2 33.828571zM783.771429 354.971429c-4.914286 6.4-11.885714 11.314286-20.114286 13.828571-21.257143 6.4-43.657143-5.714286-50.057143-26.971429-0.571429-1.714286-0.914286-3.542857-1.257143-5.257142 4.571429 0.228571 9.142857-0.228571 13.828572-1.6 1.371429-0.457143 2.628571-0.914286 3.885714-1.371429 14.057143 8.342857 31.428571 10.971429 48.342857 5.828571 32.114286-9.6 50.285714-43.542857 40.685714-75.657142-1.371429-4.457143-3.085714-8.571429-5.257143-12.342858 3.085714-7.314286 4-15.542857 2.285715-23.771428 14.857143 2.285714 27.771429 12.8 32.457143 28.228571 5.028571 16.685714-1.371429 33.942857-14.514286 43.771429 0.914286 1.942857 1.714286 4 2.4 6.171428 6.4 21.257143-5.6 43.657143-26.971429 50.057143-8.685714 2.628571-17.714286 2.057143-25.714285-0.914285z" fill="#FBC02D" p-id="3406"></path><path d="M538.285714 107.771429c-7.771429-17.028571-22.628571-28.457143-39.542857-32.571429-9.371429-14.514286-25.142857-24.8-43.771428-26.628571-18.628571-1.714286-36 5.371429-48 17.942857-17.371429 0.914286-34.057143 9.371429-44.914286 24.571428s-13.371429 33.828571-8.457143 50.514286c-7.885714 15.428571-8.914286 34.171429-1.142857 51.2s22.628571 28.457143 39.542857 32.571429c9.371429 14.514286 25.142857 24.8 43.771429 26.628571 18.628571 1.714286 36-5.371429 48-17.942857 17.371429-0.914286 34.057143-9.371429 44.914285-24.571429s13.371429-33.828571 8.457143-50.514285c7.885714-15.428571 8.914286-34.171429 1.142857-51.2z" fill="#FFF59D" p-id="3407"></path><path d="M432.685714 251.657143c-17.257143-2.514286-31.771429-12.457143-40.571428-26.171429-16.8-4.114286-31.771429-15.542857-39.542857-32.571428-7.771429-17.028571-6.742857-35.771429 1.142857-51.2-4.914286-16.685714-2.4-35.2 8.457143-50.514286 8.342857-11.657143 20.114286-19.428571 32.914285-22.742857-20.342857 13.028571-27.542857 39.657143-14.857143 60.571428-11.771429 15.314286-17.028571 30.742857-10.971428 50.628572 5.257143 17.485714 21.6 32.914286 42.285714 34.057143-7.2 19.428571 5.485714 32.914286 21.142857 37.942857zM522.285714 156.914286c4 6.971429 6.057143 15.2 5.257143 23.885714-2.057143 22.057143-21.714286 38.285714-43.771428 36.228571-1.828571-0.114286-3.542857-0.457143-5.371429-0.8 1.942857-4.114286 3.2-8.571429 3.657143-13.371428 0.114286-1.371429 0.228571-2.742857 0.114286-4.114286 13.028571-9.942857 21.942857-25.028571 23.657142-42.628571 3.2-33.371429-21.371429-62.971429-54.742857-66.171429-4.571429-0.457143-9.028571-0.342857-13.485714 0.228572-5.6-5.6-12.914286-9.6-21.142857-11.085715 7.657143-12.914286 22.4-20.914286 38.285714-19.428571 17.257143 1.6 30.971429 14.057143 35.085714 29.942857 2.171429-0.114286 4.342857-0.114286 6.628572 0.114286 22.057143 2.057143 38.285714 21.714286 36.228571 43.771428-0.8 9.028571-4.685714 17.142857-10.4 23.428572z" fill="#FBC02D" p-id="3408"></path><path d="M661.828571 123.542857c-4.685714-18.057143-17.257143-32-33.142857-39.085714-6.628571-16-20.342857-28.914286-38.4-33.942857-17.942857-5.028571-36.342857-1.028571-50.4 9.142857-17.142857-2.171429-35.2 3.2-48.571428 16.228571s-19.085714 30.971429-17.257143 48.228572c-10.514286 13.828571-14.857143 32.114286-10.171429 50.171428s17.257143 32 33.142857 39.085715c6.628571 16 20.342857 28.914286 38.4 33.942857 17.942857 5.028571 36.342857 1.028571 50.4-9.142857 17.142857 2.171429 35.2-3.2 48.571429-16.228572s19.085714-30.971429 17.257143-48.228571c10.514286-13.828571 14.857143-32.114286 10.171428-50.171429z" fill="#FFF9C4" p-id="3409"></path><path d="M532.457143 246.4c-16.457143-5.6-29.028571-17.942857-35.314286-33.028571-15.885714-6.971429-28.457143-20.914286-33.142857-39.085715-4.685714-18.057143-0.342857-36.342857 10.171429-50.171428-1.828571-17.257143 3.885714-35.085714 17.257142-48.228572 10.285714-10.057143 23.2-15.542857 36.457143-16.571428-22.4 9.142857-34.171429 34.171429-25.371428 57.028571-14.285714 13.028571-22.171429 27.2-19.771429 47.885714 2.171429 18.171429 15.428571 36.228571 35.542857 41.028572-10.4 17.828571-0.457143 33.371429 14.171429 41.142857zM637.371429 169.028571c2.742857 7.542857 3.2 16.114286 0.914285 24.457143-5.942857 21.371429-28.114286 33.828571-49.485714 27.885715-1.714286-0.457143-3.428571-1.142857-5.028571-1.828572 2.628571-3.657143 4.685714-7.885714 5.942857-12.571428 0.342857-1.371429 0.685714-2.628571 0.914285-4 14.514286-7.428571 26.057143-20.685714 30.857143-37.714286 9.028571-32.342857-9.828571-65.828571-42.171428-74.857143-4.457143-1.257143-8.914286-1.942857-13.257143-2.171429-4.571429-6.514286-10.971429-11.657143-18.857143-14.628571 9.828571-11.314286 25.714286-16.685714 41.142857-12.342857 16.685714 4.685714 28 19.314286 29.257143 35.657143 2.171429 0.228571 4.342857 0.685714 6.514286 1.257143 21.371429 5.942857 33.828571 28.114286 27.885714 49.485714-2.514286 8.914286-7.771429 16.228571-14.628571 21.371428z" fill="#FBC02D" p-id="3410"></path><path d="M727.314286 332.342857c9.371429-16.228571 10.057143-34.971429 3.657143-51.085714 6.4-16.114286 5.714286-34.857143-3.657143-51.085714s-25.257143-26.171429-42.4-28.685715c-10.742857-13.6-27.314286-22.4-46.057143-22.4-18.628571 0-35.314286 8.8-46.057143 22.4-17.142857 2.514286-33.028571 12.571429-42.4 28.685715-9.371429 16.228571-10.057143 34.971429-3.657143 51.085714-6.4 16.114286-5.714286 34.857143 3.657143 51.085714s25.257143 26.171429 42.4 28.685714c10.742857 13.6 27.314286 22.4 46.057143 22.4s35.314286-8.8 46.057143-22.4c17.142857-2.4 33.028571-12.457143 42.4-28.685714z" fill="#FFF9C4" p-id="3411"></path><path d="M548.914286 329.6c-7.885714-15.542857-8.228571-33.028571-2.171429-48.228571-6.4-16.114286-5.714286-34.857143 3.657143-51.085715s25.257143-26.171429 42.4-28.685714c10.742857-13.6 27.314286-22.4 46.057143-22.4 14.285714 0 27.428571 5.142857 37.6 13.714286-22.4-9.142857-48.342857 0.457143-57.942857 22.971428-19.314286-0.685714-34.857143 4-47.657143 20.457143-11.2 14.4-14.285714 36.685714-3.314286 54.171429-20 5.257143-23.657143 23.314286-18.628571 39.085714zM677.942857 347.771429c-3.314286 7.314286-8.914286 13.714286-16.457143 18.057142-19.2 11.085714-43.771429 4.457143-54.857143-14.742857-0.914286-1.6-1.714286-3.2-2.4-4.8 4.457143-0.8 8.914286-2.4 13.028572-4.8 1.257143-0.685714 2.4-1.485714 3.428571-2.285714 15.657143 4.914286 33.142857 3.428571 48.457143-5.371429 29.028571-16.8 38.971429-53.942857 22.171429-82.971428-2.285714-4-5.028571-7.542857-8-10.857143 1.371429-7.771429 0.342857-16-3.2-23.657143 14.971429-1.142857 30.057143 6.057143 38.057143 20 8.685714 15.085714 6.514286 33.371429-4 45.942857 1.371429 1.714286 2.628571 3.542857 3.771428 5.371429 11.085714 19.2 4.571429 43.771429-14.742857 54.857143-7.885714 4.8-16.8 6.285714-25.257143 5.257143z" fill="#FBC02D" p-id="3412"></path><path d="M268.457143 310.742857c6.285714 17.6 20 30.4 36.457143 36 8.114286 15.314286 22.857143 26.971429 41.142857 30.4s36.342857-2.171429 49.371428-13.6c17.371429 0.685714 34.742857-6.285714 46.971429-20.457143 12.114286-14.171429 16.342857-32.571429 12.914286-49.485714 9.257143-14.628571 12-33.257143 5.714285-50.857143s-20-30.4-36.457142-36c-8.114286-15.314286-22.857143-26.971429-41.142858-30.4s-36.342857 2.171429-49.371428 13.6c-17.371429-0.685714-34.742857 6.285714-46.971429 20.457143-12.114286 14.171429-16.342857 32.571429-12.914285 49.485714-9.257143 14.628571-12 33.257143-5.714286 50.857143z" fill="#FFF9C4" p-id="3413"></path><path d="M386.514286 176.914286c16.914286 4.114286 30.514286 15.314286 38.057143 29.714285 16.457143 5.6 30.171429 18.285714 36.457142 36 6.285714 17.6 3.542857 36.228571-5.714285 50.857143 3.428571 17.028571-0.8 35.314286-12.914286 49.485715-9.257143 10.857143-21.714286 17.485714-34.857143 19.771428 21.485714-11.085714 30.971429-37.028571 20.228572-58.971428 13.028571-14.285714 19.657143-29.028571 15.428571-49.485715-3.657143-17.828571-18.514286-34.742857-39.085714-37.714285 8.914286-18.628571-2.514286-33.257143-17.6-39.657143zM288.8 263.2c-3.428571-7.314286-4.685714-15.657143-3.085714-24.228571 4-21.828571 25.028571-36.228571 46.857143-32.114286 1.828571 0.342857 3.542857 0.8 5.257142 1.371428-2.285714 3.885714-4 8.342857-4.8 13.028572-0.228571 1.371429-0.457143 2.742857-0.571428 4.114286-13.828571 8.685714-24.114286 22.971429-27.428572 40.342857-6.171429 32.914286 15.657143 64.685714 48.571429 70.742857 4.571429 0.8 9.028571 1.142857 13.371429 1.028571 5.028571 6.057143 12 10.742857 20.114285 12.914286-8.8 12.114286-24.114286 18.857143-39.885714 15.885714-17.028571-3.2-29.6-16.685714-32.342857-32.914285-2.171429-0.114286-4.342857-0.228571-6.514286-0.685715-21.828571-4-36.228571-25.028571-32.228571-46.857143 1.714286-9.142857 6.285714-16.914286 12.685714-22.628571z" fill="#FBC02D" p-id="3414"></path><path d="M600.457143 317.371429c9.371429-16.228571 10.057143-34.971429 3.657143-51.085715 6.4-16.114286 5.714286-34.857143-3.657143-51.085714s-25.257143-26.171429-42.4-28.685714c-10.742857-13.6-27.314286-22.4-46.057143-22.4-18.628571 0-35.314286 8.8-46.057143 22.4-17.142857 2.514286-33.028571 12.571429-42.4 28.685714-9.371429 16.228571-10.057143 34.971429-3.657143 51.085714-6.4 16.114286-5.714286 34.857143 3.657143 51.085715s25.257143 26.171429 42.4 28.685714c10.742857 13.6 27.314286 22.4 46.057143 22.4 18.628571 0 35.314286-8.8 46.057143-22.4 17.142857-2.514286 33.028571-12.457143 42.4-28.685714z" fill="#FFF59D" p-id="3415"></path><path d="M422.057143 314.514286c-7.885714-15.542857-8.228571-33.028571-2.171429-48.228572-6.4-16.114286-5.714286-34.857143 3.657143-51.085714s25.257143-26.171429 42.4-28.685714c10.742857-13.6 27.314286-22.4 46.057143-22.4 14.285714 0 27.428571 5.142857 37.6 13.714285-22.4-9.142857-48.342857 0.457143-57.942857 22.971429-19.314286-0.685714-34.857143 4-47.657143 20.457143-11.2 14.4-14.285714 36.685714-3.314286 54.171428-19.885714 5.371429-23.657143 23.428571-18.628571 39.085715zM551.085714 332.8c-3.314286 7.314286-8.914286 13.714286-16.457143 18.057143-19.2 11.085714-43.771429 4.457143-54.857142-14.742857-0.914286-1.6-1.714286-3.2-2.4-4.8 4.457143-0.8 8.914286-2.4 13.028571-4.8 1.257143-0.685714 2.4-1.485714 3.428571-2.285715 15.657143 4.914286 33.142857 3.428571 48.457143-5.371428 29.028571-16.8 38.971429-53.942857 22.171429-82.971429-2.285714-4-5.028571-7.542857-8-10.857143 1.371429-7.771429 0.342857-16-3.2-23.657142 14.971429-1.142857 30.057143 6.057143 38.057143 20 8.685714 15.085714 6.514286 33.371429-4 45.942857 1.371429 1.714286 2.628571 3.542857 3.771428 5.371428 11.085714 19.2 4.571429 43.771429-14.742857 54.857143-7.885714 4.8-16.685714 6.285714-25.257143 5.257143z" fill="#FBC02D" p-id="3416"></path><path d="M250.057143 999.771429c-18.742857 0-34.4-13.485714-37.257143-32l-88.685714-591.2v-0.342858c-3.657143-31.314286 2.285714-56 17.828571-73.485714 13.942857-15.771429 34.514286-24 59.314286-24 16.342857 0 31.657143 6.057143 44.457143 16.914286 12.685714-10.857143 28.114286-16.914286 44.457143-16.914286s31.657143 6.057143 44.457142 16.914286c12.685714-10.857143 28.114286-16.914286 44.342858-16.914286 16.342857 0 31.657143 6.057143 44.457142 16.914286 12.685714-10.857143 28.114286-16.914286 44.457143-16.914286s31.657143 6.057143 44.457143 16.914286c12.685714-10.857143 28.114286-16.914286 44.457143-16.914286s31.657143 6.057143 44.457143 16.914286c12.685714-10.857143 28.114286-16.914286 44.457143-16.914286 16.342857 0 31.657143 6.057143 44.342857 16.914286 12.685714-10.857143 28.114286-16.914286 44.457143-16.914286s31.657143 6.057143 44.457143 16.914286c12.685714-10.857143 28.114286-16.914286 44.457142-16.914286 24.8 0 45.257143 8.342857 59.314286 24 15.542857 17.485714 21.485714 42.171429 17.828572 73.485714v0.342858l-88.685715 591.2c-2.857143 18.628571-18.4 32-37.257143 32h-524.571428z" fill="#25467A" p-id="3417"></path><path d="M822.857143 302.857143c-18.628571 0-34.971429 12.685714-44.457143 31.885714-9.485714-19.2-25.828571-31.885714-44.457143-31.885714-18.628571 0-34.971429 12.685714-44.457143 31.885714-9.485714-19.2-25.828571-31.885714-44.342857-31.885714-18.628571 0-34.971429 12.685714-44.457143 31.885714-9.485714-19.2-25.828571-31.885714-44.457143-31.885714s-34.971429 12.685714-44.457142 31.885714c-9.485714-19.2-25.828571-31.885714-44.457143-31.885714s-34.971429 12.685714-44.457143 31.885714c-9.485714-19.2-25.828571-31.885714-44.457143-31.885714s-34.971429 12.685714-44.342857 31.885714c-9.485714-19.2-25.828571-31.885714-44.457143-31.885714s-34.971429 12.685714-44.457143 31.885714c-9.485714-19.2-25.828571-31.885714-44.457143-31.885714-29.257143 0-59.542857 15.314286-53.028571 70.4l88.571428 590.857143c1.028571 6.628571 6.628571 11.428571 13.257143 11.428571h524.457143c6.628571 0 12.228571-4.8 13.257143-11.428571l88.571429-590.857143C882.285714 318.285714 852.114286 302.857143 822.857143 302.857143z" fill="#EF5350" p-id="3418"></path><path d="M291.085714 975.542857h-24.342857l-77.714286-671.771428c4-0.685714 8.114286-0.914286 12.228572-0.914286 4.228571 0 8.342857 0.685714 12.228571 1.942857l77.6 670.742857zM357.6 975.542857h-24.228571l-55.428572-670.857143c3.885714-1.142857 7.885714-1.828571 12.114286-1.828571s8.228571 0.685714 12.228571 1.828571l55.314286 670.857143zM424.228571 975.542857H400l-33.257143-670.857143c3.885714-1.142857 7.885714-1.828571 12.114286-1.828571s8.228571 0.685714 12.114286 1.828571l33.257142 670.857143zM490.857143 975.542857h-24.228572l-11.085714-670.857143c3.885714-1.142857 7.885714-1.828571 12.114286-1.828571s8.228571 0.685714 12.114286 1.828571l11.085714 670.857143zM568.457143 304.685714l-11.085714 670.857143h-24.228572l11.085714-670.857143c3.885714-1.257143 8-1.828571 12.114286-1.828571s8.228571 0.685714 12.114286 1.828571zM657.257143 304.685714l-33.257143 670.857143h-24.228571l33.257142-670.857143c3.885714-1.257143 8-1.828571 12.114286-1.828571 4.228571 0 8.228571 0.685714 12.114286 1.828571zM746.057143 304.685714l-55.428572 670.857143h-24.228571l55.428571-670.857143c3.885714-1.257143 8-1.828571 12.228572-1.828571 4.114286 0 8.114286 0.685714 12 1.828571zM835.085714 303.885714l-77.714285 671.771429h-24.342858l77.6-670.742857c3.885714-1.257143 8-1.942857 12.228572-1.942857 4-0.114286 8.114286 0.228571 12.228571 0.914285z" fill="#FFFFFF" p-id="3419"></path><path d="M291.085714 975.542857h-24.342857l-77.714286-671.771428c4-0.685714 8.114286-0.914286 12.228572-0.914286 4.228571 0 8.342857 0.685714 12.228571 1.942857l77.6 670.742857zM357.6 975.542857h-24.228571l-55.428572-670.857143c3.885714-1.142857 7.885714-1.828571 12.114286-1.828571s8.228571 0.685714 12.228571 1.828571l55.314286 670.857143zM424.228571 975.542857H400l-33.257143-670.857143c3.885714-1.142857 7.885714-1.828571 12.114286-1.828571s8.228571 0.685714 12.114286 1.828571l33.257142 670.857143zM490.857143 975.542857h-24.228572l-11.085714-670.857143c3.885714-1.142857 7.885714-1.828571 12.114286-1.828571s8.228571 0.685714 12.114286 1.828571l11.085714 670.857143zM568.457143 304.685714l-11.085714 670.857143h-24.228572l11.085714-670.857143c3.885714-1.257143 8-1.828571 12.114286-1.828571s8.228571 0.685714 12.114286 1.828571zM657.257143 304.685714l-33.257143 670.857143h-24.228571l33.257142-670.857143c3.885714-1.257143 8-1.828571 12.114286-1.828571 4.228571 0 8.228571 0.685714 12.114286 1.828571zM746.057143 304.685714l-55.428572 670.857143h-24.228571l55.428571-670.857143c3.885714-1.257143 8-1.828571 12.228572-1.828571 4.114286 0 8.114286 0.685714 12 1.828571zM835.085714 303.885714l-77.714285 671.771429h-24.342858l77.6-670.742857c3.885714-1.257143 8-1.942857 12.228572-1.942857 4-0.114286 8.114286 0.228571 12.228571 0.914285z" fill="#FFFFFF" p-id="3420"></path><path d="M231.428571 637.485714a280.571429 213.6 0 1 0 561.142858 0 280.571429 213.6 0 1 0-561.142858 0Z" fill="#EF5350" p-id="3421"></path><path d="M512 737.028571c-35.314286 0-64-28.685714-64-64 0-7.085714 5.714286-12.8 12.8-12.8s12.8 5.714286 12.8 12.8c0 21.257143 17.257143 38.4 38.4 38.4s38.4-17.142857 38.4-38.4c0-7.085714 5.714286-12.8 12.8-12.8s12.8 5.714286 12.8 12.8c0 35.428571-28.685714 64-64 64z" fill="#25467A" p-id="3422"></path><path d="M384 570.628571m-38.4 0a38.4 38.4 0 1 0 76.8 0 38.4 38.4 0 1 0-76.8 0Z" fill="#25467A" p-id="3423"></path><path d="M640 570.628571m-38.4 0a38.4 38.4 0 1 0 76.8 0 38.4 38.4 0 1 0-76.8 0Z" fill="#25467A" p-id="3424"></path><path d="M332.8 634.628571h-51.2c-14.171429 0-25.6 11.428571-25.6 25.6s11.428571 25.6 25.6 25.6h51.2c14.171429 0 25.6-11.428571 25.6-25.6 0-14.057143-11.428571-25.485714-25.6-25.6zM742.4 634.628571h-51.2c-14.171429 0-25.6 11.428571-25.6 25.6s11.428571 25.6 25.6 25.6h51.2c14.171429 0 25.6-11.428571 25.6-25.6 0-14.057143-11.428571-25.485714-25.6-25.6z" fill="#FFCDD2" p-id="3425"></path></svg>